<?xml version="1.0" encoding="UTF-8" standalone="no"?>
<!DOCTYPE svg PUBLIC "-//W3C//DTD SVG 1.1//EN" "http://www.w3.org/Graphics/SVG/1.1/DTD/svg11.dtd">
<svg width="100%" height="100%" viewBox="0 0 1024 1024" version="1.1" xmlns="http://www.w3.org/2000/svg" xmlns:xlink="http://www.w3.org/1999/xlink" xml:space="preserve" xmlns:serif="http://www.serif.com/" style="fill-rule:evenodd;clip-rule:evenodd;stroke-linejoin:round;stroke-miterlimit:2;">
    <g transform="matrix(1.12862,0,0,1.12862,-115.131,-130.707)">
        <circle cx="555.662" cy="570.349" r="453.651" style="fill:none;"/>
        <clipPath id="_clip1">
            <circle cx="555.662" cy="570.349" r="453.651"/>
        </clipPath>
        <g clip-path="url(#_clip1)">
            <g id="Logo" transform="matrix(0.886038,0,0,0.886038,102.896,115.811)">
                <g id="Fond" transform="matrix(1.132,0,0,1.132,-586.728,-97.4194)">
                    <g transform="matrix(0.904591,0,0,0.904591,517.427,86.0593)">
                        <rect x="0" y="875.004" width="1000" height="124.996" style="fill:rgb(153,182,220);"/>
                    </g>
                    <g transform="matrix(0.904591,0,0,0.904591,517.427,86.0593)">
                        <rect x="0" y="750.008" width="1000" height="124.996" style="fill:rgb(102,146,203);"/>
                    </g>
                    <g transform="matrix(0.904591,0,0,0.904591,517.427,86.0593)">
                        <rect x="0" y="625.013" width="1000" height="124.996" style="fill:rgb(51,109,185);"/>
                    </g>
                    <g transform="matrix(0.904591,0,0,0.904591,517.427,86.0593)">
                        <rect x="0" y="500" width="1000" height="125.013" style="fill:rgb(0,73,168);"/>
                    </g>
                    <g transform="matrix(0.904591,0,0,0.904591,517.427,86.0593)">
                        <rect x="0" y="0" width="1000" height="500" style="fill:rgb(236,127,50);"/>
                    </g>
                </g>
                <g id="Lettre" transform="matrix(1.132,0,0,1.132,-586.728,-97.4194)">
                    <g transform="matrix(1.024,0,0,1.024,-12.4394,-12.9205)">
                        <path d="M1180.81,472.8L1079.49,472.8C1074.66,472.8 1070.56,474.5 1067.19,477.87C1063.82,481.24 1062.12,485.36 1062.12,490.17L1062.12,852.02C1062.12,856.85 1060.55,860.95 1057.42,864.32C1054.28,867.7 1050.06,869.39 1044.75,869.39L936.2,869.39C931.37,869.39 927.27,867.71 923.9,864.32C920.52,860.95 918.83,856.85 918.83,852.02L918.83,490.17C918.83,485.35 917.26,481.25 914.13,477.87C910.99,474.5 906.77,472.8 901.46,472.8L798.69,472.8C793.86,472.8 789.76,471.11 786.39,467.73C783.01,464.36 781.32,460.26 781.32,455.43L781.32,357.01C781.32,352.19 783.01,348.09 786.39,344.71C789.77,341.33 793.86,339.64 798.69,339.64L1180.8,339.64C1186.1,339.64 1190.32,341.34 1193.47,344.71C1196.6,348.09 1198.17,352.2 1198.17,357.01L1198.17,455.43C1198.17,460.26 1196.6,464.36 1193.47,467.73C1190.33,471.11 1186.11,472.8 1180.8,472.8L1180.81,472.8Z" style="fill:rgb(0,73,168);fill-rule:nonzero;"/>
                    </g>
                    <g transform="matrix(1.024,0,0,1.024,-12.4394,-12.9205)">
                        <path d="M1155.63,447.62L1054.31,447.62C1049.48,447.62 1045.38,449.32 1042.01,452.69C1038.63,456.07 1036.94,460.18 1036.94,464.99L1036.94,826.84C1036.94,831.67 1035.37,835.77 1032.24,839.14C1029.1,842.52 1024.88,844.21 1019.57,844.21L911.02,844.21C906.19,844.21 902.09,842.53 898.72,839.14C895.34,835.77 893.65,831.67 893.65,826.84L893.65,464.99C893.65,460.17 892.08,456.07 888.95,452.69C885.81,449.32 881.59,447.62 876.28,447.62L773.51,447.62C768.68,447.62 764.58,445.93 761.21,442.55C757.83,439.18 756.14,435.08 756.14,430.25L756.14,331.83C756.14,327.01 757.83,322.91 761.21,319.53C764.59,316.15 768.68,314.46 773.51,314.46L1155.62,314.46C1160.92,314.46 1165.14,316.16 1168.29,319.53C1171.42,322.91 1172.99,327.02 1172.99,331.83L1172.99,430.25C1172.99,435.08 1171.42,439.18 1168.29,442.55C1165.15,445.93 1160.93,447.62 1155.62,447.62L1155.63,447.62Z" style="fill:rgb(236,127,50);fill-rule:nonzero;"/>
                    </g>
                    <g transform="matrix(1.024,0,0,1.024,-12.4394,-12.9205)">
                        <path d="M1130.45,422.44L1029.13,422.44C1024.3,422.44 1020.2,424.14 1016.83,427.51C1013.45,430.89 1011.76,435 1011.76,439.81L1011.76,801.66C1011.76,806.49 1010.19,810.59 1007.06,813.96C1003.92,817.34 999.7,819.03 994.39,819.03L885.84,819.03C881.01,819.03 876.91,817.35 873.54,813.96C870.16,810.59 868.47,806.49 868.47,801.66L868.47,439.81C868.47,434.99 866.9,430.89 863.77,427.51C860.63,424.14 856.41,422.44 851.1,422.44L748.33,422.44C743.5,422.44 739.4,420.75 736.03,417.37C732.65,414 730.96,409.9 730.96,405.07L730.96,306.65C730.96,301.83 732.65,297.73 736.03,294.35C739.41,290.97 743.5,289.28 748.33,289.28L1130.44,289.28C1135.74,289.28 1139.96,290.98 1143.11,294.35C1146.24,297.73 1147.81,301.84 1147.81,306.65L1147.81,405.07C1147.81,409.9 1146.24,414 1143.11,417.37C1139.97,420.75 1135.75,422.44 1130.44,422.44L1130.45,422.44Z" style="fill:rgb(255,230,204);fill-rule:nonzero;"/>
                    </g>
                </g>
            </g>
        </g>
    </g>
</svg>
